<?xml version="1.0" standalone="no"?>
<!DOCTYPE svg PUBLIC "-//W3C//DTD SVG 20010904//EN"
 "http://www.w3.org/TR/2001/REC-SVG-20010904/DTD/svg10.dtd">
<svg version="1.0" xmlns="http://www.w3.org/2000/svg"
 width="1052.000000pt" height="1052.000000pt" viewBox="0 0 1052.000000 1052.000000"
 preserveAspectRatio="xMidYMid meet">
<metadata>
Created by potrace 1.14, written by Peter Selinger 2001-2017
</metadata>
<g transform="translate(0.000000,1052.000000) scale(0.100000,-0.100000)"
fill="#000000" stroke="none">
<path d="M4668 10045 c-1 -2 -43 -6 -93 -9 -49 -4 -110 -9 -135 -13 -25 -3
-56 -7 -70 -8 -62 -7 -291 -44 -300 -50 -3 -2 -21 -6 -40 -9 -19 -3 -46 -8
-60 -11 -33 -8 -60 -14 -85 -19 -11 -2 -51 -13 -90 -24 -189 -54 -252 -73
-270 -82 -11 -5 -38 -14 -60 -21 -22 -6 -58 -20 -80 -29 -22 -10 -56 -23 -75
-31 -32 -11 -75 -30 -180 -76 -58 -25 -274 -134 -286 -144 -6 -5 -14 -6 -17
-2 -4 3 -7 1 -7 -6 0 -6 -12 -16 -26 -21 -47 -18 -391 -238 -430 -274 -6 -6
-22 -18 -34 -26 -29 -19 -237 -186 -270 -216 -146 -134 -202 -189 -256 -244
-121 -125 -160 -168 -194 -211 -19 -24 -42 -50 -50 -59 -35 -38 -100 -119
-100 -126 0 -3 -8 -14 -17 -23 -10 -9 -34 -38 -53 -66 -19 -27 -38 -51 -42
-53 -4 -2 -8 -7 -8 -12 0 -4 -29 -51 -65 -103 -36 -52 -65 -100 -65 -106 0 -6
-4 -11 -10 -11 -5 0 -10 -4 -10 -10 0 -5 -15 -33 -33 -62 -19 -29 -51 -87 -73
-128 -21 -41 -42 -77 -47 -78 -4 -2 -5 -8 -1 -13 3 -5 0 -9 -6 -9 -6 0 -8 -4
-5 -10 3 -5 1 -10 -4 -10 -6 0 -11 -4 -11 -10 0 -5 -20 -52 -45 -104 -25 -53
-45 -100 -45 -106 0 -5 -4 -10 -10 -10 -5 0 -9 -3 -8 -7 3 -13 -36 -113 -44
-113 -4 0 -5 -7 -2 -15 4 -8 1 -15 -5 -15 -6 0 -10 -3 -10 -7 1 -5 0 -11 -1
-15 -1 -5 -3 -11 -5 -15 -1 -5 -5 -15 -8 -23 -3 -8 -18 -51 -33 -95 -14 -44
-29 -84 -32 -90 -3 -5 -7 -16 -8 -25 -3 -24 -11 -52 -29 -104 -16 -48 -21 -66
-31 -116 -2 -14 -7 -32 -11 -40 -7 -18 -10 -27 -17 -65 -3 -16 -10 -52 -16
-80 -14 -65 -39 -201 -44 -240 -5 -36 -15 -116 -21 -165 -2 -19 -4 -35 -5 -35
-1 0 -3 -31 -6 -69 -2 -38 -10 -76 -17 -85 -7 -8 -7 -12 -1 -8 12 7 11 -63 -1
-98 -5 -15 -4 -17 3 -6 8 11 9 2 5 -30 -9 -75 -9 -230 -1 -235 5 -3 5 -10 1
-17 -8 -13 -11 -87 -3 -87 3 0 5 -13 5 -29 0 -16 -4 -27 -9 -24 -5 4 -5 0 0
-8 5 -8 9 -36 10 -64 1 -27 3 -50 4 -50 1 0 3 -22 4 -50 2 -27 6 -60 10 -72 5
-15 3 -23 -5 -23 -8 0 -8 -4 -1 -12 5 -7 12 -35 16 -63 3 -27 8 -63 10 -80 5
-33 -7 -47 -65 -82 -57 -33 -199 -163 -199 -182 0 -5 -3 -11 -7 -13 -12 -5
-48 -59 -64 -96 -7 -17 -17 -32 -21 -32 -5 0 -7 -3 -7 -7 3 -14 -13 -73 -20
-73 -3 0 -7 -12 -8 -28 -4 -36 -7 -55 -14 -67 -3 -5 -4 -20 -3 -32 0 -13 -1
-23 -5 -23 -3 0 -6 -38 -6 -84 0 -46 3 -82 6 -80 9 5 20 -56 12 -69 -3 -5 -1
-7 4 -4 6 4 14 -5 17 -19 8 -31 40 -78 81 -118 17 -16 29 -33 27 -38 -1 -5 2
-7 7 -3 9 5 48 -11 61 -26 3 -3 26 -11 52 -18 30 -9 45 -18 41 -25 -4 -6 1 -5
10 3 20 16 22 3 2 -23 -8 -10 -19 -15 -26 -10 -8 4 -10 3 -5 -5 5 -7 -7 -27
-28 -49 -20 -20 -36 -42 -36 -49 0 -6 -10 -19 -22 -27 -12 -9 -19 -16 -14 -16
5 0 0 -12 -10 -27 -18 -29 -57 -102 -60 -115 -1 -5 -2 -9 -4 -10 -1 -2 -3 -11
-5 -20 -2 -9 -8 -32 -13 -50 -8 -26 -10 -93 -2 -93 1 0 3 -8 5 -19 5 -26 55
-76 76 -76 10 0 20 -4 23 -9 3 -4 16 -7 28 -7 13 1 31 -2 42 -7 13 -6 16 -6
12 2 -4 6 0 11 11 12 10 0 27 3 38 5 11 3 27 6 35 6 8 0 21 5 27 10 7 6 21 7
30 4 10 -4 14 -4 10 0 -6 6 59 35 108 48 6 2 17 6 25 9 39 17 100 36 101 32 1
-3 2 -9 3 -14 0 -5 4 -13 9 -17 4 -4 7 -16 7 -26 0 -10 6 -18 13 -18 8 0 7 -4
-3 -10 -10 -6 -11 -10 -2 -10 6 0 12 -9 12 -20 0 -11 4 -20 8 -20 4 0 8 -9 9
-20 1 -13 -2 -18 -9 -14 -7 4 -8 2 -4 -5 4 -6 12 -9 17 -6 15 10 23 -26 8 -36
-11 -8 -9 -9 6 -7 11 2 20 -2 20 -9 0 -6 3 -15 8 -19 11 -11 9 -26 -3 -19 -6
3 -10 1 -10 -4 0 -6 -3 -10 -7 -9 -15 4 -88 -14 -101 -24 -6 -6 -12 -8 -12 -4
0 6 -95 -41 -134 -67 -57 -37 -144 -155 -152 -205 -2 -8 -6 -21 -10 -30 -11
-24 -13 -48 -13 -122 0 -100 2 -119 11 -114 7 5 12 -18 9 -38 0 -5 4 -8 10 -8
6 0 8 -7 5 -16 -3 -8 -2 -13 3 -10 5 3 14 -1 20 -8 10 -11 8 -17 -6 -26 -16
-10 -16 -10 3 -5 14 4 31 -4 55 -25 19 -16 42 -32 52 -36 9 -3 17 -10 17 -15
0 -6 4 -7 10 -4 5 3 10 1 10 -4 0 -6 3 -10 8 -9 4 1 40 -11 79 -26 63 -25 71
-31 61 -45 -10 -12 -8 -12 8 1 13 11 24 14 30 8 5 -5 18 -11 29 -13 61 -13 86
-21 91 -28 3 -5 10 -6 16 -3 7 5 8 2 3 -6 -6 -10 -4 -12 8 -7 10 3 17 3 17 -2
0 -5 9 -11 21 -14 13 -4 18 -10 13 -18 -4 -8 -3 -10 4 -5 7 4 17 -3 24 -19 9
-21 9 -28 -1 -35 -9 -5 -10 -9 -2 -11 7 -3 13 -53 15 -149 2 -80 8 -158 13
-175 6 -16 9 -38 7 -47 -1 -10 2 -18 7 -18 5 0 9 -5 9 -12 0 -18 41 -99 64
-126 12 -14 40 -39 63 -57 23 -18 40 -35 37 -38 -3 -3 1 -5 8 -4 43 1 51 -3
37 -21 -12 -15 -12 -15 1 -5 9 7 33 9 60 6 103 -12 245 5 349 42 34 12 37 11
54 -11 10 -13 15 -29 12 -34 -3 -6 1 -7 9 -4 10 4 19 -1 23 -12 4 -10 24 -35
45 -55 21 -20 35 -39 31 -42 -3 -4 -1 -7 5 -7 16 0 108 -90 104 -102 -1 -5 3
-6 9 -2 7 4 17 1 23 -7 6 -8 32 -30 59 -49 26 -18 47 -37 47 -42 0 -5 4 -7 10
-3 5 3 18 -3 29 -14 11 -11 22 -17 25 -14 3 3 8 -2 12 -11 3 -9 14 -16 24 -16
10 0 20 -3 22 -8 1 -4 32 -23 68 -41 36 -19 68 -38 71 -44 3 -5 8 -8 10 -7 10
5 89 -22 89 -30 0 -6 9 -10 19 -10 11 0 23 -5 26 -11 4 -6 13 -8 21 -5 8 3 17
-1 20 -9 3 -8 12 -11 21 -8 12 5 14 3 8 -7 -5 -8 -4 -11 3 -6 15 9 63 -4 56
-15 -3 -5 1 -6 9 -3 8 3 39 -5 70 -16 31 -12 67 -22 79 -23 13 0 25 -4 28 -8
5 -7 31 -13 118 -25 23 -4 42 -11 42 -15 0 -5 14 -7 30 -5 17 2 30 0 30 -3 0
-4 15 -7 33 -8 40 -2 80 -8 92 -14 6 -3 21 -4 35 -3 14 1 28 -3 32 -10 6 -8 8
-7 8 2 0 8 5 10 13 5 6 -4 26 -8 42 -8 26 0 30 -4 30 -27 1 -33 12 -48 12 -16
1 41 3 47 16 43 6 -2 41 -6 77 -10 35 -3 69 -10 74 -15 6 -6 15 -10 21 -10 5
0 3 5 -5 10 -11 7 -1 9 33 8 26 0 47 -5 47 -10 0 -5 -4 -7 -8 -4 -5 3 -9 -1
-9 -9 0 -10 4 -12 12 -5 7 5 15 7 19 3 4 -4 5 -1 1 7 -4 13 12 15 103 14 60 0
115 -4 122 -9 8 -5 11 -4 7 1 -5 9 93 16 260 18 40 1 73 5 73 9 0 5 5 5 10 2
6 -4 7 -11 4 -17 -4 -7 -2 -8 5 -4 6 4 9 11 6 16 -3 5 14 9 37 9 24 0 56 2 73
5 16 3 35 0 42 -6 8 -6 16 -8 20 -4 3 3 1 6 -5 6 -7 0 -12 4 -12 8 0 4 20 7
45 7 25 -1 45 2 45 5 0 3 10 6 23 7 12 0 44 3 70 6 35 5 46 3 42 -6 -4 -7 -1
-5 7 3 19 22 39 23 53 3 13 -17 13 -17 12 1 -2 15 5 20 33 21 19 2 44 6 54 11
14 5 17 4 11 -5 -4 -8 4 -6 19 4 14 10 26 15 26 11 0 -3 12 -1 26 4 16 7 23 7
19 0 -3 -6 -2 -10 4 -10 5 0 11 4 13 9 3 10 49 21 95 25 12 1 25 5 29 9 4 4
14 1 22 -6 10 -8 13 -8 9 0 -8 13 136 48 154 37 8 -4 9 -3 5 4 -4 7 -1 12 9
12 10 0 15 -6 12 -13 -3 -8 1 -14 8 -14 7 0 10 8 7 21 -3 12 -2 18 2 14 4 -3
26 0 47 7 29 11 38 11 32 2 -5 -9 -2 -8 9 1 15 12 25 15 87 28 14 3 28 7 31 9
4 2 22 7 40 10 18 3 38 9 44 13 6 3 16 7 21 8 13 2 116 31 180 50 28 8 57 16
65 17 8 1 18 6 21 10 3 5 17 10 30 11 38 5 53 10 62 21 4 6 10 5 16 -3 6 -11
10 -10 15 4 6 16 8 16 16 4 8 -12 10 -12 10 4 0 11 5 16 13 13 7 -3 24 1 37 8
19 10 28 11 39 2 12 -9 13 -9 7 1 -4 7 0 14 11 18 10 3 28 10 39 16 12 5 33
11 47 11 14 1 23 4 21 6 -7 7 57 31 67 25 5 -3 9 0 9 6 0 6 4 9 9 5 5 -3 13 0
17 6 4 8 9 7 15 -2 7 -11 9 -10 9 4 0 22 17 22 23 0 4 -14 5 -12 6 5 0 12 6
22 12 22 6 0 9 -9 6 -20 -3 -11 -1 -18 4 -14 5 3 9 -3 9 -13 0 -10 14 -45 30
-77 16 -32 27 -63 24 -68 -3 -5 -2 -8 3 -7 20 3 27 -2 13 -11 -13 -8 -12 -10
3 -10 9 0 17 -4 17 -9 0 -11 115 -131 126 -131 4 0 21 -10 38 -23 17 -12 44
-28 59 -35 21 -9 27 -17 23 -29 -5 -12 -3 -13 7 -5 16 14 102 -9 90 -23 -4 -5
0 -3 10 4 9 7 17 9 17 4 0 -9 21 -12 97 -16 12 -1 19 -5 16 -10 -3 -5 3 -4 14
2 11 5 32 8 47 5 17 -3 26 0 26 8 0 9 3 8 10 -2 6 -9 10 -10 10 -3 0 6 9 10
20 8 11 -2 22 0 25 5 3 5 14 7 25 5 11 -2 20 0 20 6 0 5 8 9 18 9 10 0 28 7
40 16 12 8 22 12 22 9 0 -3 10 1 21 9 12 8 28 12 37 9 10 -4 13 -2 8 5 -7 12
29 36 43 28 5 -3 8 0 7 7 0 6 3 14 8 17 19 10 76 70 76 80 0 5 5 11 10 11 6 1
14 2 19 3 5 0 13 5 18 10 5 5 3 6 -4 2 -20 -11 -15 8 6 31 11 12 18 23 15 26
-2 2 2 10 11 17 8 7 15 19 15 27 0 8 5 11 12 7 6 -4 8 -3 5 3 -3 5 5 43 19 84
53 155 28 301 -69 402 -41 44 -46 47 -68 47 -6 0 -9 7 -6 15 4 8 1 17 -5 21
-7 4 -8 3 -4 -4 8 -14 -22 -16 -43 -3 -9 6 -10 11 -2 15 6 4 11 4 11 -1 0 -4
4 -3 8 3 4 5 24 18 44 27 20 10 40 22 43 27 3 6 15 10 26 10 10 0 19 5 19 11
0 5 5 7 10 4 6 -3 10 -1 10 5 0 7 7 10 15 6 8 -3 15 -2 15 2 0 12 99 64 110
57 6 -4 10 -3 9 2 -3 20 2 25 16 13 13 -11 14 -10 10 1 -3 9 6 21 25 32 16 10
30 15 30 10 0 -4 4 -3 8 2 12 17 52 36 63 30 5 -4 8 -1 7 5 -2 7 6 17 17 23
11 7 43 27 72 45 30 17 57 32 62 32 5 0 16 6 23 13 7 7 36 26 63 41 28 16 53
34 56 39 4 5 12 6 19 2 9 -6 11 -4 5 5 -6 10 -4 12 9 7 9 -4 15 -3 11 2 -5 10
122 94 142 94 6 0 11 5 10 11 -1 6 6 10 15 10 10 -1 16 3 15 10 -1 6 6 10 15
10 10 -1 16 2 13 6 -3 5 12 18 32 31 21 12 48 31 60 42 12 11 27 16 34 12 7
-5 10 -4 6 2 -4 6 0 16 8 23 8 7 15 10 15 7 0 -3 12 5 27 19 15 14 33 22 40
19 8 -2 12 -1 8 4 -3 5 8 19 25 31 26 18 33 20 48 9 14 -11 15 -11 5 1 -13 14
-19 39 -7 28 3 -4 14 1 23 10 44 43 73 62 82 57 5 -4 8 -1 7 7 -2 7 5 12 14
12 10 -1 16 1 14 5 -7 10 4 23 46 54 21 15 52 41 70 57 18 17 39 30 47 30 8 0
12 3 8 6 -3 4 1 13 9 22 14 13 17 13 26 1 8 -11 9 -11 4 3 -3 12 11 31 47 62
28 25 55 46 59 46 4 0 8 8 8 17 0 9 3 13 6 10 4 -3 15 5 26 18 11 14 24 22 30
19 6 -4 8 -3 5 2 -9 15 69 87 85 78 10 -6 10 -4 -1 9 -12 15 -11 17 3 17 11 0
14 5 10 12 -5 8 -2 9 9 5 9 -3 16 -3 14 1 -4 15 32 54 44 47 7 -5 10 -4 6 2
-7 10 15 43 57 87 12 12 35 39 52 59 17 20 35 33 38 29 4 -3 4 1 0 11 -4 12
-1 17 10 17 9 0 15 6 14 13 -2 6 2 11 9 10 7 -2 10 4 7 12 -4 8 -2 15 4 15 5
0 12 9 15 21 3 12 10 18 16 14 6 -3 9 0 5 8 -3 8 2 17 10 20 9 4 16 11 16 16
0 5 24 45 54 89 30 44 52 82 50 85 -2 2 2 10 11 17 8 7 15 18 15 24 0 7 9 22
20 34 12 12 18 22 15 22 -3 0 6 21 19 48 13 26 30 62 37 80 8 17 21 32 29 32
12 0 12 2 1 9 -9 6 -10 11 -2 15 6 4 9 12 6 17 -4 5 -1 9 4 9 6 0 10 3 9 8 -3
17 25 101 33 96 5 -3 6 2 3 10 -3 9 -2 16 4 16 5 0 10 6 9 13 -1 37 4 68 11
63 4 -2 8 3 8 12 1 9 4 33 8 52 4 19 9 51 12 70 3 19 10 39 14 44 5 5 5 19 0
31 -7 18 -5 25 7 29 11 5 13 10 4 20 -6 7 -9 15 -6 18 11 10 8 284 -3 302 -3
5 -7 26 -8 45 -2 20 -10 65 -18 100 -8 36 -13 68 -10 73 3 4 0 8 -5 8 -6 0
-11 9 -11 19 0 11 -4 22 -9 25 -5 3 -11 17 -13 30 -4 19 5 36 33 68 21 24 44
50 51 58 7 8 13 18 13 23 0 4 5 11 11 15 6 4 17 22 25 40 8 17 17 32 21 32 5
0 7 3 6 8 -1 4 6 24 15 46 9 21 17 45 17 53 0 8 5 11 12 7 8 -5 9 -2 5 10 -4
10 -4 23 0 29 8 13 12 41 17 108 1 25 6 50 9 56 4 6 4 13 0 16 -3 4 -8 26 -10
49 -5 64 -10 80 -44 156 -10 23 -19 49 -19 58 0 8 -5 12 -10 9 -9 -5 -11 -1
-10 20 1 10 -25 33 -31 29 -6 -3 -19 19 -19 32 0 2 11 4 24 4 14 0 27 4 31 10
4 6 15 6 31 0 14 -6 23 -6 20 -1 -3 5 6 14 22 19 31 12 94 67 85 76 -3 3 -2
11 4 18 11 15 10 80 -2 123 -9 33 -46 117 -54 125 -4 3 -12 17 -20 32 -12 24
-119 148 -146 169 -5 5 -23 20 -40 35 -16 14 -42 33 -57 42 -16 9 -28 20 -28
24 0 4 -5 8 -10 8 -6 0 -26 10 -45 23 -28 18 -33 26 -28 47 3 14 9 26 12 27 7
3 6 66 -2 153 -3 31 -15 89 -27 130 -13 41 -24 82 -25 90 0 8 -9 27 -19 42 -9
14 -18 36 -19 47 -1 12 -5 21 -9 21 -4 0 -8 4 -8 9 0 14 -77 143 -105 176 -52
61 -119 125 -137 131 -10 3 -18 10 -18 15 0 5 -7 9 -15 9 -8 0 -15 3 -15 8 0
4 -15 13 -32 21 -18 8 -51 22 -73 32 -41 18 -114 40 -151 45 -12 1 -39 5 -60
9 -82 13 -335 1 -404 -20 -11 -3 -20 12 -34 58 -21 65 -65 160 -78 165 -5 2
-6 8 -2 13 3 5 0 9 -5 9 -6 0 -11 6 -11 14 0 8 -4 16 -8 18 -5 2 -23 28 -41
58 -17 30 -50 80 -72 110 -22 30 -51 71 -64 90 -43 65 -179 234 -295 365 -93
105 -330 334 -437 422 -21 17 -49 41 -63 53 -14 12 -53 43 -87 68 -35 25 -63
49 -63 54 0 4 -5 8 -11 8 -10 0 -103 63 -119 80 -3 3 -14 10 -25 17 -11 6 -65
40 -120 75 -55 35 -109 68 -120 74 -11 6 -42 24 -70 40 -47 28 -296 152 -375
187 -142 63 -410 160 -410 149 0 -4 -4 -2 -8 4 -4 6 -27 16 -52 23 -25 6 -52
14 -60 16 -32 9 -176 47 -190 50 -8 2 -15 4 -15 5 0 1 -7 3 -15 5 -12 2 -105
22 -140 30 -3 0 -26 4 -51 8 -53 9 -84 15 -119 22 -14 3 -43 8 -65 10 -22 2
-56 6 -75 9 -19 3 -64 9 -100 12 -36 3 -85 8 -110 11 -51 5 -596 13 -602 8z"/>
<path d="M10153 5985 c0 -8 4 -12 9 -9 5 3 6 10 3 15 -9 13 -12 11 -12 -6z"/>
<path d="M10210 5980 c0 -5 5 -10 11 -10 5 0 7 5 4 10 -3 6 -8 10 -11 10 -2 0
-4 -4 -4 -10z"/>
<path d="M10236 5962 c-3 -5 1 -9 9 -9 8 0 12 4 9 9 -3 4 -7 8 -9 8 -2 0 -6
-4 -9 -8z"/>
<path d="M10155 5280 c-3 -5 -1 -10 4 -10 6 0 11 5 11 10 0 6 -2 10 -4 10 -3
0 -8 -4 -11 -10z"/>
<path d="M10030 5099 c0 -5 5 -7 10 -4 6 3 10 8 10 11 0 2 -4 4 -10 4 -5 0
-10 -5 -10 -11z"/>
<path d="M10116 5038 c3 -5 10 -6 15 -3 13 9 11 12 -6 12 -8 0 -12 -4 -9 -9z"/>
<path d="M430 3926 c0 -2 7 -7 16 -10 8 -3 12 -2 9 4 -6 10 -25 14 -25 6z"/>
<path d="M335 3899 c-3 -4 2 -6 10 -5 21 3 28 13 10 13 -9 0 -18 -4 -20 -8z"/>
<path d="M9939 3888 c-5 -18 -6 -38 -1 -34 7 8 12 36 6 36 -2 0 -4 -1 -5 -2z"/>
<path d="M415 3860 c-3 -5 -1 -10 4 -10 6 0 11 5 11 10 0 6 -2 10 -4 10 -3 0
-8 -4 -11 -10z"/>
<path d="M9776 3538 c3 -5 10 -6 15 -3 13 9 11 12 -6 12 -8 0 -12 -4 -9 -9z"/>
<path d="M9715 3460 c-3 -5 -1 -10 4 -10 6 0 11 5 11 10 0 6 -2 10 -4 10 -3 0
-8 -4 -11 -10z"/>
<path d="M9680 3440 c-9 -6 -10 -10 -3 -10 6 0 15 5 18 10 8 12 4 12 -15 0z"/>
<path d="M769 3363 c-13 -16 -12 -17 4 -4 9 7 17 15 17 17 0 8 -8 3 -21 -13z"/>
<path d="M666 3362 c-3 -5 1 -9 9 -9 8 0 12 4 9 9 -3 4 -7 8 -9 8 -2 0 -6 -4
-9 -8z"/>
<path d="M826 3358 c3 -5 10 -6 15 -3 13 9 11 12 -6 12 -8 0 -12 -4 -9 -9z"/>
<path d="M720 3340 c-9 -6 -10 -10 -3 -10 6 0 15 5 18 10 8 12 4 12 -15 0z"/>
<path d="M840 3340 c-9 -6 -10 -10 -3 -10 6 0 15 5 18 10 8 12 4 12 -15 0z"/>
<path d="M756 3327 c3 -10 9 -15 12 -12 3 3 0 11 -7 18 -10 9 -11 8 -5 -6z"/>
<path d="M795 3331 c-3 -5 -2 -12 3 -15 5 -3 9 1 9 9 0 17 -3 19 -12 6z"/>
<path d="M330 3299 c0 -5 5 -7 10 -4 6 3 10 8 10 11 0 2 -4 4 -10 4 -5 0 -10
-5 -10 -11z"/>
<path d="M9555 3289 c-4 -6 -5 -12 -2 -15 2 -3 7 2 10 11 7 17 1 20 -8 4z"/>
<path d="M439 3273 c-13 -16 -12 -17 4 -4 9 7 17 15 17 17 0 8 -8 3 -21 -13z"/>
<path d="M816 3261 c-3 -5 2 -15 12 -22 15 -12 16 -12 5 2 -7 9 -10 19 -6 22
3 4 4 7 0 7 -3 0 -8 -4 -11 -9z"/>
<path d="M9515 3240 c-3 -5 -1 -10 4 -10 6 0 11 5 11 10 0 6 -2 10 -4 10 -3 0
-8 -4 -11 -10z"/>
<path d="M535 3231 c-3 -5 -2 -12 3 -15 5 -3 9 1 9 9 0 17 -3 19 -12 6z"/>
<path d="M496 3222 c-3 -5 1 -9 9 -9 8 0 12 4 9 9 -3 4 -7 8 -9 8 -2 0 -6 -4
-9 -8z"/>
<path d="M9470 3206 c0 -2 7 -7 16 -10 8 -3 12 -2 9 4 -6 10 -25 14 -25 6z"/>
<path d="M9426 3138 c3 -5 10 -6 15 -3 13 9 11 12 -6 12 -8 0 -12 -4 -9 -9z"/>
<path d="M9453 3095 c0 -8 4 -12 9 -9 5 3 6 10 3 15 -9 13 -12 11 -12 -6z"/>
<path d="M9353 3065 c0 -8 4 -12 9 -9 5 3 6 10 3 15 -9 13 -12 11 -12 -6z"/>
<path d="M9355 3019 c-3 -4 2 -6 10 -5 21 3 28 13 10 13 -9 0 -18 -4 -20 -8z"/>
<path d="M9260 2966 c0 -2 8 -10 18 -17 15 -13 16 -12 3 4 -13 16 -21 21 -21
13z"/>
<path d="M9350 2959 c0 -5 5 -7 10 -4 6 3 10 8 10 11 0 2 -4 4 -10 4 -5 0 -10
-5 -10 -11z"/>
<path d="M9210 2860 c0 -5 5 -10 11 -10 5 0 7 5 4 10 -3 6 -8 10 -11 10 -2 0
-4 -4 -4 -10z"/>
<path d="M9115 2809 c-4 -6 -5 -12 -2 -15 2 -3 7 2 10 11 7 17 1 20 -8 4z"/>
<path d="M9076 2793 c-6 -14 -5 -15 5 -6 7 7 10 15 7 18 -3 3 -9 -2 -12 -12z"/>
<path d="M9039 2788 c-5 -18 -6 -38 -1 -34 7 8 12 36 6 36 -2 0 -4 -1 -5 -2z"/>
<path d="M9070 2760 c0 -5 5 -10 11 -10 5 0 7 5 4 10 -3 6 -8 10 -11 10 -2 0
-4 -4 -4 -10z"/>
<path d="M8879 2633 c-13 -16 -12 -17 4 -4 16 13 21 21 13 21 -2 0 -10 -8 -17
-17z"/>
<path d="M8915 2640 c-3 -5 -1 -10 4 -10 6 0 11 5 11 10 0 6 -2 10 -4 10 -3 0
-8 -4 -11 -10z"/>
<path d="M8953 2585 c0 -8 4 -12 9 -9 5 3 6 10 3 15 -9 13 -12 11 -12 -6z"/>
<path d="M8886 2582 c-3 -5 1 -9 9 -9 8 0 12 4 9 9 -3 4 -7 8 -9 8 -2 0 -6 -4
-9 -8z"/>
<path d="M8726 2462 c-3 -5 1 -9 9 -9 8 0 12 4 9 9 -3 4 -7 8 -9 8 -2 0 -6 -4
-9 -8z"/>
<path d="M8653 2375 c0 -8 4 -12 9 -9 5 3 6 10 3 15 -9 13 -12 11 -12 -6z"/>
<path d="M759 2355 c-1 -3 -2 -8 -3 -12 -1 -5 -5 -15 -10 -23 -7 -12 -6 -13 4
-3 13 12 23 43 14 43 -2 0 -5 -2 -5 -5z"/>
<path d="M696 2338 c3 -4 11 -5 19 -1 21 7 19 12 -4 10 -11 0 -18 -5 -15 -9z"/>
<path d="M790 2341 c0 -6 4 -13 10 -16 6 -3 7 1 4 9 -7 18 -14 21 -14 7z"/>
<path d="M8467 2319 c7 -7 15 -10 18 -7 3 3 -2 9 -12 12 -14 6 -15 5 -6 -5z"/>
<path d="M8536 2302 c-3 -5 1 -9 9 -9 8 0 12 4 9 9 -3 4 -7 8 -9 8 -2 0 -6 -4
-9 -8z"/>
<path d="M960 2260 c-9 -6 -10 -10 -3 -10 6 0 15 5 18 10 8 12 4 12 -15 0z"/>
<path d="M8450 2260 c0 -5 5 -10 11 -10 5 0 7 5 4 10 -3 6 -8 10 -11 10 -2 0
-4 -4 -4 -10z"/>
<path d="M8314 2249 c-3 -6 -2 -15 3 -20 5 -5 9 -1 9 11 0 23 -2 24 -12 9z"/>
<path d="M879 2233 c-13 -16 -12 -17 4 -4 9 7 17 15 17 17 0 8 -8 3 -21 -13z"/>
<path d="M8275 2220 c-3 -5 -1 -10 4 -10 6 0 11 5 11 10 0 6 -2 10 -4 10 -3 0
-8 -4 -11 -10z"/>
<path d="M1070 2201 c0 -6 4 -13 10 -16 6 -3 7 1 4 9 -7 18 -14 21 -14 7z"/>
<path d="M8316 2198 c3 -5 10 -6 15 -3 13 9 11 12 -6 12 -8 0 -12 -4 -9 -9z"/>
<path d="M1076 2158 c3 -5 10 -6 15 -3 13 9 11 12 -6 12 -8 0 -12 -4 -9 -9z"/>
<path d="M8293 2129 c-2 -23 3 -25 10 -4 4 8 3 16 -1 19 -4 3 -9 -4 -9 -15z"/>
<path d="M1030 2136 c0 -2 8 -10 18 -17 15 -13 16 -12 3 4 -13 16 -21 21 -21
13z"/>
<path d="M860 2126 c0 -2 8 -10 18 -17 15 -13 16 -12 3 4 -13 16 -21 21 -21
13z"/>
<path d="M8170 2099 c0 -5 5 -7 10 -4 6 3 10 8 10 11 0 2 -4 4 -10 4 -5 0 -10
-5 -10 -11z"/>
<path d="M8135 2060 c3 -5 8 -10 11 -10 2 0 4 5 4 10 0 6 -5 10 -11 10 -5 0
-7 -4 -4 -10z"/>
<path d="M8180 2046 c0 -2 8 -10 18 -17 15 -13 16 -12 3 4 -13 16 -21 21 -21
13z"/>
<path d="M8076 2018 c3 -4 11 -5 19 -1 21 7 19 12 -4 10 -11 0 -18 -5 -15 -9z"/>
<path d="M7953 1995 c0 -8 4 -12 9 -9 5 3 6 10 3 15 -9 13 -12 11 -12 -6z"/>
<path d="M7980 2006 c0 -2 8 -10 18 -17 15 -13 16 -12 3 4 -13 16 -21 21 -21
13z"/>
<path d="M8045 1960 c-3 -6 1 -7 9 -4 18 7 21 14 7 14 -6 0 -13 -4 -16 -10z"/>
<path d="M7835 1941 c-3 -5 -2 -12 3 -15 5 -3 9 1 9 9 0 17 -3 19 -12 6z"/>
<path d="M7930 1939 c0 -5 5 -7 10 -4 6 3 10 8 10 11 0 2 -4 4 -10 4 -5 0 -10
-5 -10 -11z"/>
<path d="M7775 1860 c3 -5 8 -10 11 -10 2 0 4 5 4 10 0 6 -5 10 -11 10 -5 0
-7 -4 -4 -10z"/>
<path d="M7805 1860 c-3 -6 1 -7 9 -4 18 7 21 14 7 14 -6 0 -13 -4 -16 -10z"/>
<path d="M7750 1799 c0 -5 5 -7 10 -4 6 3 10 8 10 11 0 2 -4 4 -10 4 -5 0 -10
-5 -10 -11z"/>
<path d="M7693 1775 c0 -8 4 -12 9 -9 5 3 6 10 3 15 -9 13 -12 11 -12 -6z"/>
<path d="M7570 1716 c7 -7 13 -7 20 0 6 6 3 10 -10 10 -13 0 -16 -4 -10 -10z"/>
<path d="M1255 1580 c3 -5 8 -10 11 -10 2 0 4 5 4 10 0 6 -5 10 -11 10 -5 0
-7 -4 -4 -10z"/>
<path d="M1795 1540 c-3 -5 -1 -10 4 -10 6 0 11 5 11 10 0 6 -2 10 -4 10 -3 0
-8 -4 -11 -10z"/>
<path d="M1270 1500 c0 -5 5 -10 11 -10 5 0 7 5 4 10 -3 6 -8 10 -11 10 -2 0
-4 -4 -4 -10z"/>
<path d="M1713 1475 c0 -8 4 -12 9 -9 5 3 6 10 3 15 -9 13 -12 11 -12 -6z"/>
<path d="M1279 1453 c-12 -16 -12 -17 2 -6 9 7 20 9 24 5 5 -4 5 -1 1 6 -9 16
-11 15 -27 -5z"/>
<path d="M1433 1455 c0 -8 4 -12 9 -9 5 3 6 10 3 15 -9 13 -12 11 -12 -6z"/>
<path d="M1813 1425 c0 -8 4 -12 9 -9 5 3 6 10 3 15 -9 13 -12 11 -12 -6z"/>
<path d="M1674 1422 c4 -3 14 -7 22 -8 9 -1 13 0 10 4 -4 3 -14 7 -22 8 -9 1
-13 0 -10 -4z"/>
<path d="M1395 1400 c3 -5 8 -10 11 -10 2 0 4 5 4 10 0 6 -5 10 -11 10 -5 0
-7 -4 -4 -10z"/>
<path d="M1760 1400 c-9 -6 -10 -10 -3 -10 6 0 15 5 18 10 8 12 4 12 -15 0z"/>
<path d="M1853 1375 c0 -8 4 -12 9 -9 5 3 6 10 3 15 -9 13 -12 11 -12 -6z"/>
<path d="M2076 1262 c-3 -5 1 -9 9 -9 8 0 12 4 9 9 -3 4 -7 8 -9 8 -2 0 -6 -4
-9 -8z"/>
<path d="M6294 1242 c4 -3 14 -7 22 -8 9 -1 13 0 10 4 -4 3 -14 7 -22 8 -9 1
-13 0 -10 -4z"/>
<path d="M6430 1222 c0 -5 7 -9 15 -9 8 0 12 4 9 9 -3 4 -9 8 -15 8 -5 0 -9
-4 -9 -8z"/>
<path d="M6296 1207 c3 -10 9 -15 12 -12 3 3 0 11 -7 18 -10 9 -11 8 -5 -6z"/>
<path d="M2110 1201 c0 -6 4 -13 10 -16 6 -3 7 1 4 9 -7 18 -14 21 -14 7z"/>
<path d="M6196 1202 c-3 -5 1 -9 9 -9 8 0 12 4 9 9 -3 4 -7 8 -9 8 -2 0 -6 -4
-9 -8z"/>
<path d="M6326 1198 c3 -5 10 -6 15 -3 13 9 11 12 -6 12 -8 0 -12 -4 -9 -9z"/>
<path d="M6386 1198 c3 -5 10 -6 15 -3 13 9 11 12 -6 12 -8 0 -12 -4 -9 -9z"/>
<path d="M6453 1171 c0 -11 5 -18 9 -15 4 3 5 11 1 19 -7 21 -12 19 -10 -4z"/>
<path d="M2227 1159 c7 -7 15 -10 18 -7 3 3 -2 9 -12 12 -14 6 -15 5 -6 -5z"/>
<path d="M6236 1158 c3 -5 10 -6 15 -3 13 9 11 12 -6 12 -8 0 -12 -4 -9 -9z"/>
<path d="M2190 1136 c0 -2 8 -10 18 -17 15 -13 16 -12 3 4 -13 16 -21 21 -21
13z"/>
<path d="M2255 1129 c-4 -6 -5 -12 -2 -15 2 -3 7 2 10 11 7 17 1 20 -8 4z"/>
<path d="M6026 1118 c3 -5 10 -6 15 -3 13 9 11 12 -6 12 -8 0 -12 -4 -9 -9z"/>
<path d="M6173 1111 c0 -11 5 -18 9 -15 4 3 5 11 1 19 -7 21 -12 19 -10 -4z"/>
<path d="M2155 1080 c3 -5 8 -10 11 -10 2 0 4 5 4 10 0 6 -5 10 -11 10 -5 0
-7 -4 -4 -10z"/>
<path d="M2336 1078 c3 -5 10 -6 15 -3 13 9 11 12 -6 12 -8 0 -12 -4 -9 -9z"/>
<path d="M5910 1081 c0 -6 4 -13 10 -16 6 -3 7 1 4 9 -7 18 -14 21 -14 7z"/>
<path d="M2250 1060 c0 -5 5 -10 11 -10 5 0 7 5 4 10 -3 6 -8 10 -11 10 -2 0
-4 -4 -4 -10z"/>
<path d="M2295 1060 c-3 -5 -1 -10 4 -10 6 0 11 5 11 10 0 6 -2 10 -4 10 -3 0
-8 -4 -11 -10z"/>
<path d="M5830 1062 c0 -5 7 -9 15 -9 8 0 12 4 9 9 -3 4 -9 8 -15 8 -5 0 -9
-4 -9 -8z"/>
<path d="M5970 1059 c0 -5 5 -7 10 -4 6 3 10 8 10 11 0 2 -4 4 -10 4 -5 0 -10
-5 -10 -11z"/>
<path d="M6010 1059 c0 -5 5 -7 10 -4 6 3 10 8 10 11 0 2 -4 4 -10 4 -5 0 -10
-5 -10 -11z"/>
<path d="M6056 1062 c-3 -4 4 -9 15 -9 23 -2 25 3 4 10 -8 4 -16 3 -19 -1z"/>
<path d="M5753 1045 c0 -8 4 -12 9 -9 5 3 6 10 3 15 -9 13 -12 11 -12 -6z"/>
<path d="M2296 1022 c-3 -5 1 -9 9 -9 8 0 12 4 9 9 -3 4 -7 8 -9 8 -2 0 -6 -4
-9 -8z"/>
<path d="M5616 1013 c-4 -9 -3 -20 1 -24 4 -4 9 3 9 17 2 28 -1 31 -10 7z"/>
<path d="M2515 999 c-3 -4 2 -6 10 -5 21 3 28 13 10 13 -9 0 -18 -4 -20 -8z"/>
<path d="M5576 993 c-6 -14 -5 -15 5 -6 7 7 10 15 7 18 -3 3 -9 -2 -12 -12z"/>
<path d="M5770 980 c0 -5 5 -10 11 -10 5 0 7 5 4 10 -3 6 -8 10 -11 10 -2 0
-4 -4 -4 -10z"/>
<path d="M2510 961 c0 -6 4 -13 10 -16 6 -3 7 1 4 9 -7 18 -14 21 -14 7z"/>
<path d="M5513 955 c0 -8 4 -12 9 -9 5 3 6 10 3 15 -9 13 -12 11 -12 -6z"/>
<path d="M7490 960 c0 -5 5 -10 11 -10 5 0 7 5 4 10 -3 6 -8 10 -11 10 -2 0
-4 -4 -4 -10z"/>
<path d="M5653 945 c0 -8 4 -12 9 -9 5 3 6 10 3 15 -9 13 -12 11 -12 -6z"/>
<path d="M5549 923 c-13 -16 -12 -17 4 -4 16 13 21 21 13 21 -2 0 -10 -8 -17
-17z"/>
<path d="M5216 921 c8 -8 43 -8 38 0 -2 4 -13 7 -24 6 -10 -1 -17 -3 -14 -6z"/>
<path d="M5273 893 c0 -9 4 -10 14 -2 7 6 13 12 13 14 0 1 -6 2 -13 2 -8 0
-14 -6 -14 -14z"/>
<path d="M7454 896 c1 -8 5 -18 8 -22 4 -3 5 1 4 10 -1 8 -5 18 -8 22 -4 3 -5
-1 -4 -10z"/>
<path d="M5050 880 c0 -5 5 -10 11 -10 5 0 7 5 4 10 -3 6 -8 10 -11 10 -2 0
-4 -4 -4 -10z"/>
<path d="M5114 876 c1 -8 5 -18 8 -22 4 -3 5 1 4 10 -1 8 -5 18 -8 22 -4 3 -5
-1 -4 -10z"/>
<path d="M5173 875 c0 -8 4 -12 9 -9 4 3 8 9 8 15 0 5 -4 9 -8 9 -5 0 -9 -7
-9 -15z"/>
<path d="M6636 882 c-3 -5 1 -9 9 -9 8 0 12 4 9 9 -3 4 -7 8 -9 8 -2 0 -6 -4
-9 -8z"/>
<path d="M6719 873 c-13 -16 -12 -17 4 -4 16 13 21 21 13 21 -2 0 -10 -8 -17
-17z"/>
<path d="M2655 871 c-3 -5 -2 -12 3 -15 5 -3 9 1 9 9 0 17 -3 19 -12 6z"/>
<path d="M7315 871 c-3 -5 -2 -12 3 -15 5 -3 9 1 9 9 0 17 -3 19 -12 6z"/>
<path d="M4990 858 c0 -4 4 -8 9 -8 6 0 12 4 15 8 3 5 -1 9 -9 9 -8 0 -15 -4
-15 -9z"/>
<path d="M2875 850 c-4 -6 -11 -7 -17 -4 -7 4 -8 2 -4 -5 6 -9 11 -9 22 0 14
11 18 19 10 19 -3 0 -8 -5 -11 -10z"/>
<path d="M4953 845 c0 -8 4 -12 9 -9 5 3 6 10 3 15 -9 13 -12 11 -12 -6z"/>
<path d="M6716 842 c-3 -5 1 -9 9 -9 8 0 12 4 9 9 -3 4 -7 8 -9 8 -2 0 -6 -4
-9 -8z"/>
<path d="M4915 831 c-3 -5 -2 -12 3 -15 5 -3 9 1 9 9 0 17 -3 19 -12 6z"/>
<path d="M2715 819 c-3 -4 2 -6 10 -5 21 3 28 13 10 13 -9 0 -18 -4 -20 -8z"/>
<path d="M2775 820 c3 -5 8 -10 11 -10 2 0 4 5 4 10 0 6 -5 10 -11 10 -5 0 -7
-4 -4 -10z"/>
<path d="M2810 819 c0 -5 5 -7 10 -4 6 3 10 8 10 11 0 2 -4 4 -10 4 -5 0 -10
-5 -10 -11z"/>
<path d="M4716 813 c-6 -14 -5 -15 5 -6 7 7 10 15 7 18 -3 3 -9 -2 -12 -12z"/>
<path d="M5216 818 c3 -4 11 -5 19 -1 21 7 19 12 -4 10 -11 0 -18 -5 -15 -9z"/>
<path d="M2953 806 c0 -15 22 -15 34 0 4 5 4 6 -1 2 -5 -4 -14 -3 -21 2 -8 7
-12 5 -12 -4z"/>
<path d="M3064 802 c23 -26 23 -26 23 -7 0 8 -3 13 -5 10 -3 -3 -12 1 -21 7
-10 8 -9 4 3 -10z"/>
<path d="M6917 810 c7 -8 20 -15 29 -16 9 -1 13 1 9 4 -4 4 -10 7 -13 7 -4 0
-14 4 -22 9 -12 7 -13 6 -3 -4z"/>
<path d="M2907 799 c7 -7 15 -10 18 -7 3 3 -2 9 -12 12 -14 6 -15 5 -6 -5z"/>
<path d="M3027 799 c7 -7 15 -10 18 -7 3 3 -2 9 -12 12 -14 6 -15 5 -6 -5z"/>
<path d="M3185 800 c-5 -8 42 -7 49 1 3 3 -6 5 -20 5 -14 0 -27 -3 -29 -6z"/>
<path d="M6866 798 c3 -5 10 -6 15 -3 13 9 11 12 -6 12 -8 0 -12 -4 -9 -9z"/>
<path d="M4426 778 c3 -4 9 -8 15 -8 5 0 9 4 9 8 0 5 -7 9 -15 9 -8 0 -12 -4
-9 -9z"/>
<path d="M4630 780 c0 -5 5 -10 11 -10 5 0 7 5 4 10 -3 6 -8 10 -11 10 -2 0
-4 -4 -4 -10z"/>
<path d="M4975 780 c3 -5 8 -10 11 -10 2 0 4 5 4 10 0 6 -5 10 -11 10 -5 0 -7
-4 -4 -10z"/>
<path d="M7067 779 c7 -7 15 -10 18 -7 3 3 -2 9 -12 12 -14 6 -15 5 -6 -5z"/>
<path d="M7295 780 c3 -5 8 -10 11 -10 2 0 4 5 4 10 0 6 -5 10 -11 10 -5 0 -7
-4 -4 -10z"/>
<path d="M4471 767 c-8 -10 -7 -14 2 -14 8 0 14 6 14 14 0 7 -1 13 -2 13 -2 0
-8 -6 -14 -13z"/>
<path d="M7035 771 c-3 -5 -2 -12 3 -15 5 -3 9 1 9 9 0 17 -3 19 -12 6z"/>
<path d="M3035 760 c3 -5 8 -10 11 -10 2 0 4 5 4 10 0 6 -5 10 -11 10 -5 0 -7
-4 -4 -10z"/>
<path d="M3206 758 c3 -5 10 -6 15 -3 13 9 11 12 -6 12 -8 0 -12 -4 -9 -9z"/>
<path d="M4070 758 c0 -4 4 -8 9 -8 6 0 12 4 15 8 3 5 -1 9 -9 9 -8 0 -15 -4
-15 -9z"/>
<path d="M4154 763 c3 -4 0 -13 -6 -22 -10 -12 -7 -12 8 2 11 9 23 16 25 15 2
-2 3 -1 1 1 -1 3 -10 6 -18 7 -9 1 -13 0 -10 -3z"/>
<path d="M4579 768 c-5 -18 -6 -38 -1 -34 7 8 12 36 6 36 -2 0 -4 -1 -5 -2z"/>
<path d="M4810 760 c0 -5 5 -10 11 -10 5 0 7 5 4 10 -3 6 -8 10 -11 10 -2 0
-4 -4 -4 -10z"/>
<path d="M5156 753 c-6 -14 -5 -15 5 -6 7 7 10 15 7 18 -3 3 -9 -2 -12 -12z"/>
<path d="M6849 757 c6 -8 7 -18 3 -22 -4 -5 -1 -5 6 -1 10 6 10 11 1 22 -6 8
-14 14 -16 14 -3 0 0 -6 6 -13z"/>
<path d="M7216 758 c3 -5 10 -6 15 -3 13 9 11 12 -6 12 -8 0 -12 -4 -9 -9z"/>
<path d="M3514 746 c1 -8 5 -18 8 -22 4 -3 5 1 4 10 -1 8 -5 18 -8 22 -4 3 -5
-1 -4 -10z"/>
<path d="M3795 751 c-3 -5 -2 -12 3 -15 5 -3 9 1 9 9 0 17 -3 19 -12 6z"/>
<path d="M4113 745 c0 -8 4 -12 9 -9 5 3 6 10 3 15 -9 13 -12 11 -12 -6z"/>
<path d="M2916 733 c-6 -14 -5 -15 5 -6 7 7 10 15 7 18 -3 3 -9 -2 -12 -12z"/>
<path d="M2990 740 c0 -5 5 -10 11 -10 5 0 7 5 4 10 -3 6 -8 10 -11 10 -2 0
-4 -4 -4 -10z"/>
<path d="M3553 743 c4 -3 1 -13 -6 -22 -11 -14 -10 -14 5 -2 16 12 16 31 1 31
-4 0 -3 -3 0 -7z"/>
<path d="M3626 742 c-3 -5 1 -9 9 -9 8 0 15 4 15 9 0 4 -4 8 -9 8 -6 0 -12 -4
-15 -8z"/>
<path d="M4026 742 c-3 -5 1 -9 9 -9 8 0 15 4 15 9 0 4 -4 8 -9 8 -6 0 -12 -4
-15 -8z"/>
<path d="M4690 740 c0 -5 5 -10 11 -10 5 0 7 5 4 10 -3 6 -8 10 -11 10 -2 0
-4 -4 -4 -10z"/>
<path d="M4910 741 c0 -6 4 -13 10 -16 6 -3 7 1 4 9 -7 18 -14 21 -14 7z"/>
<path d="M3180 726 c0 -2 8 -10 18 -17 15 -13 16 -12 3 4 -13 16 -21 21 -21
13z"/>
<path d="M3700 725 c0 -2 6 -8 13 -14 10 -8 14 -7 14 2 0 8 -6 14 -14 14 -7 0
-13 -1 -13 -2z"/>
<path d="M4166 718 c3 -5 10 -6 15 -3 13 9 11 12 -6 12 -8 0 -12 -4 -9 -9z"/>
<path d="M4400 720 c-9 -6 -10 -10 -3 -10 6 0 15 5 18 10 8 12 4 12 -15 0z"/>
<path d="M3653 705 c0 -8 4 -12 9 -9 5 3 6 10 3 15 -9 13 -12 11 -12 -6z"/>
<path d="M3829 703 c-13 -16 -12 -17 4 -4 16 13 21 21 13 21 -2 0 -10 -8 -17
-17z"/>
<path d="M3495 700 c3 -5 8 -10 11 -10 2 0 4 5 4 10 0 6 -5 10 -11 10 -5 0 -7
-4 -4 -10z"/>
<path d="M3235 680 c3 -5 8 -10 11 -10 2 0 4 5 4 10 0 6 -5 10 -11 10 -5 0 -7
-4 -4 -10z"/>
<path d="M3613 665 c0 -8 4 -12 9 -9 5 3 6 10 3 15 -9 13 -12 11 -12 -6z"/>
<path d="M3733 665 c0 -8 4 -12 9 -9 5 3 6 10 3 15 -9 13 -12 11 -12 -6z"/>
<path d="M3575 661 c-3 -5 -2 -12 3 -15 5 -3 9 1 9 9 0 17 -3 19 -12 6z"/>
<path d="M3814 656 c1 -8 5 -18 8 -22 4 -3 5 1 4 10 -1 8 -5 18 -8 22 -4 3 -5
-1 -4 -10z"/>
<path d="M3926 658 c3 -5 10 -6 15 -3 13 9 11 12 -6 12 -8 0 -12 -4 -9 -9z"/>
<path d="M4260 660 c8 -5 20 -10 25 -10 6 0 3 5 -5 10 -8 5 -19 10 -25 10 -5
0 -3 -5 5 -10z"/>
<path d="M3875 651 c-3 -5 -2 -12 3 -15 5 -3 9 1 9 9 0 17 -3 19 -12 6z"/>
<path d="M4313 645 c0 -8 4 -12 9 -9 5 3 6 10 3 15 -9 13 -12 11 -12 -6z"/>
</g>
</svg>
